<svg width="40" height="40" viewBox="0 0 40 40" fill="none" xmlns="http://www.w3.org/2000/svg">
<path fill-rule="evenodd" clip-rule="evenodd" d="M19.9999 36.6667C29.2047 36.6667 36.6666 29.2048 36.6666 20C36.6666 10.7953 29.2047 3.33337 19.9999 3.33337C10.7952 3.33337 3.33325 10.7953 3.33325 20C3.33325 29.2048 10.7952 36.6667 19.9999 36.6667ZM30.5045 12.9256C31.2063 13.6509 31.4342 15.3029 31.4342 15.3029C31.4342 15.3029 31.6666 17.245 31.6666 19.1824V20.9982C31.6666 22.9403 31.4342 24.8777 31.4342 24.8777C31.4342 24.8777 31.2063 26.5297 30.5045 27.255C29.7037 28.1153 28.8178 28.2041 28.317 28.2544C28.262 28.2599 28.2117 28.265 28.1666 28.2705C24.9036 28.5092 19.9999 28.5186 19.9999 28.5186C19.9999 28.5186 13.9342 28.4624 12.0657 28.2799C11.9748 28.2619 11.8641 28.248 11.7386 28.2323C11.1465 28.1582 10.224 28.0427 9.4908 27.255C8.79354 26.5297 8.56567 24.8777 8.56567 24.8777C8.56567 24.8777 8.33325 22.9356 8.33325 20.9982V19.1824C8.33325 17.245 8.57023 15.3029 8.57023 15.3029C8.57023 15.3029 8.79354 13.6509 9.49536 12.9256C10.2961 12.0653 11.182 11.9764 11.6829 11.9262C11.7378 11.9207 11.7882 11.9156 11.8333 11.9101C15.0963 11.6667 19.9954 11.6667 19.9954 11.6667H20.0045C20.0045 11.6667 24.9036 11.6667 28.1666 11.9101C28.2117 11.9156 28.262 11.9207 28.317 11.9262C28.8178 11.9764 29.7037 12.0653 30.5045 12.9256ZM17.5891 16.4681V23.2023L23.8918 19.8469L17.5891 16.4681Z" fill="#949494"/>
</svg>
