<svg width="40" height="40" viewBox="0 0 40 40" fill="none" xmlns="http://www.w3.org/2000/svg">
<path fill-rule="evenodd" clip-rule="evenodd" d="M19.9999 36.6667C29.2047 36.6667 36.6666 29.2048 36.6666 20C36.6666 10.7953 29.2047 3.33337 19.9999 3.33337C10.7952 3.33337 3.33325 10.7953 3.33325 20C3.33325 29.2048 10.7952 36.6667 19.9999 36.6667ZM24.0472 11.8605C22.9958 11.8136 22.6792 11.8019 20.0058 11.8019C17.3323 11.8019 17.0157 11.8136 15.9644 11.8605C14.9911 11.9035 14.4596 12.0677 14.1078 12.2045C13.6427 12.3842 13.3105 12.5992 12.9587 12.951C12.6108 13.2988 12.3919 13.635 12.2122 14.1001C12.0754 14.4519 11.9112 14.9795 11.8682 15.9567C11.8213 17.0081 11.8096 17.3246 11.8096 19.9981C11.8096 22.6676 11.8213 22.9842 11.8682 24.0395C11.9112 25.0127 12.0754 25.5443 12.2122 25.8961C12.3919 26.3612 12.6069 26.6934 12.9587 27.0452C13.3065 27.393 13.6427 27.6119 14.1078 27.7917C14.4596 27.9285 14.9872 28.0927 15.9644 28.1357C17.0157 28.1826 17.3323 28.1943 20.0058 28.1943C22.6753 28.1943 22.9919 28.1826 24.0472 28.1357C25.0204 28.0927 25.552 27.9285 25.9038 27.7917C26.3689 27.6119 26.7011 27.3969 27.0529 27.0452C27.4007 26.6973 27.6196 26.3612 27.7994 25.8961C27.9362 25.5443 28.1004 25.0166 28.1434 24.0395C28.1903 22.9881 28.202 22.6715 28.202 19.9981C28.202 17.3286 28.1903 17.012 28.1434 15.9567C28.1004 14.9834 27.9362 14.4519 27.7994 14.1001C27.6196 13.635 27.4046 13.3028 27.0529 12.951C26.705 12.6031 26.3689 12.3842 25.9038 12.2045C25.552 12.0677 25.0243 11.9035 24.0472 11.8605ZM15.8823 10.0587C16.9493 10.0118 17.2893 10 20.0058 10C22.7222 10 23.0623 10.0118 24.1332 10.0626C25.1963 10.1095 25.9233 10.2815 26.5604 10.5277C27.217 10.7817 27.776 11.1257 28.331 11.6807C28.8899 12.2357 29.2299 12.7946 29.4762 13.4591C29.7224 14.0923 29.8944 14.8232 29.9413 15.8863C29.9882 16.9533 29.9999 17.2934 29.9999 20.0098C29.9999 22.7262 29.9882 23.0663 29.9413 24.1333C29.8944 25.1964 29.7224 25.9234 29.4762 26.5605C29.2221 27.2172 28.8782 27.7761 28.3232 28.3311C27.7681 28.8861 27.2092 29.2301 26.5526 29.4841C25.9194 29.7303 25.1885 29.9023 24.1254 29.9492C23.0584 29.9961 22.7183 30.0079 20.0019 30.0079C17.2854 30.0079 16.9454 29.9961 15.8784 29.9492C14.8152 29.9023 14.0883 29.7303 13.4512 29.4841C12.7945 29.2301 12.2356 28.8861 11.6806 28.3311C11.1217 27.7761 10.7816 27.2172 10.5237 26.5566C10.2774 25.9234 10.1054 25.1925 10.0585 24.1294C10.0116 23.0624 9.99992 22.7223 9.99992 20.0059C9.99992 17.2895 10.0116 16.9494 10.0585 15.8785C10.1054 14.8154 10.2774 14.0884 10.5237 13.4513C10.7816 12.7946 11.1217 12.2357 11.6806 11.6807C12.2356 11.1218 12.7945 10.7817 13.4551 10.5238C14.0883 10.2775 14.8191 10.1056 15.8823 10.0587ZM20.0059 14.8662C17.1683 14.8662 14.8662 17.1683 14.8662 20.0059C14.8662 22.8435 17.1683 25.1456 20.0059 25.1456C22.8435 25.1456 25.1457 22.8435 25.1457 20.0059C25.1457 17.1683 22.8435 14.8662 20.0059 14.8662ZM20.0059 23.3399C18.165 23.3399 16.6719 21.8468 16.6719 20.0059C16.6719 18.165 18.165 16.6719 20.0059 16.6719C21.8469 16.6719 23.3399 18.165 23.3399 20.0059C23.3399 21.8468 21.8469 23.3399 20.0059 23.3399ZM25.3487 15.8628C26.0092 15.8628 26.5486 15.3273 26.5486 14.6629C26.5486 14.0024 26.0092 13.463 25.3487 13.463C24.6881 13.463 24.1487 13.9984 24.1487 14.6629C24.1487 15.3234 24.6842 15.8628 25.3487 15.8628Z" fill="#949494"/>
</svg>
