<svg width="40" height="40" viewBox="0 0 40 40" fill="none" xmlns="http://www.w3.org/2000/svg">
<path fill-rule="evenodd" clip-rule="evenodd" d="M19.9999 36.6667C29.2047 36.6667 36.6666 29.2048 36.6666 20C36.6666 10.7953 29.2047 3.33337 19.9999 3.33337C10.7952 3.33337 3.33325 10.7953 3.33325 20C3.33325 29.2048 10.7952 36.6667 19.9999 36.6667ZM19.8318 31.6667L22.9691 28.9442H16.6945L19.8318 31.6667ZM16.2697 28.1501H23.9382L26.6666 25.4276H13.3333L16.2697 28.1501ZM26.6666 23.4992V10H13.3333V23.4992H26.6666ZM16.6538 20.1683V13.7191H18.8801L20.9216 17.3368V13.6999H23.0733V20.1683H20.9205L18.8612 17.0556V20.1683H16.6538Z" fill="#949494"/>
</svg>
