<svg width="40" height="40" viewBox="0 0 40 40" fill="none" xmlns="http://www.w3.org/2000/svg">
<path fill-rule="evenodd" clip-rule="evenodd" d="M19.9999 36.6667C29.2047 36.6667 36.6666 29.2048 36.6666 20C36.6666 10.7953 29.2047 3.33337 19.9999 3.33337C10.7952 3.33337 3.33325 10.7953 3.33325 20C3.33325 29.2048 10.7952 36.6667 19.9999 36.6667ZM19.9999 8.33337C13.5561 8.33337 8.33325 13.1563 8.33325 19.1027C8.33325 23.4952 10.1757 25.5934 12.7031 27.5049L12.7158 27.5112V32.6664C12.7158 32.9101 12.9948 33.0493 13.1883 32.9038L17.612 29.6252L17.7072 29.6663C18.4492 29.8024 19.2166 29.8752 19.9999 29.8752C26.4437 29.8752 31.6666 25.0522 31.6666 19.1059C31.6666 13.1563 26.4437 8.33337 19.9999 8.33337ZM16.0899 21.8306C17.2347 21.8306 18.2114 21.1471 18.5063 20.0932H20.1965C19.7843 22.1249 18.1987 23.4541 16.0899 23.4541C13.6386 23.4541 11.6947 21.6281 11.6947 19.09C11.6947 16.5488 13.6386 14.726 16.0899 14.726C18.2209 14.726 19.816 16.0836 20.2092 18.1501H18.5222C18.2653 17.0267 17.2537 16.3273 16.0899 16.3273C14.4409 16.3273 13.3437 17.5014 13.3437 19.09C13.3437 20.6819 14.5899 21.8306 16.0899 21.8306ZM27.2365 23.2895H25.6858V19.7989C25.6858 18.9951 25.2165 18.5647 24.4966 18.5647C23.6911 18.5647 23.1742 19.0552 23.1742 20.0521V23.2895H21.6235V14.7513H23.1742V17.9634C23.5453 17.4001 24.1478 17.1248 24.9628 17.1248C25.6255 17.1248 26.1646 17.34 26.5864 17.783C27.0208 18.2261 27.2365 18.8274 27.2365 19.6059V23.2895Z" fill="#949494"/>
</svg>
